<?xml version="1.0" encoding="utf-8"?>
<!-- Generator: Adobe Illustrator 16.0.0, SVG Export Plug-In . SVG Version: 6.00 Build 0)  -->
<!DOCTYPE svg PUBLIC "-//W3C//DTD SVG 1.1//EN" "http://www.w3.org/Graphics/SVG/1.1/DTD/svg11.dtd">
<svg version="1.1" id="Layer_1" xmlns="http://www.w3.org/2000/svg" xmlns:xlink="http://www.w3.org/1999/xlink" x="0px" y="0px"
	 width="16px" height="16.84px" viewBox="0 0 16 16.84" enable-background="new 0 0 16 16.84" xml:space="preserve">
<path fill="#3399ff" d="M15.99,2.978c-0.074-0.862-0.704-1.491-1.516-1.491h-1.293V0.743c0-0.41-0.314-0.743-0.704-0.743
	c-0.389,0-0.704,0.333-0.704,0.743v0.744H4.226V0.743C4.226,0.333,3.91,0,3.521,0C3.132,0,2.817,0.333,2.817,0.743v0.744H1.526
	c-0.812,0-1.441,0.629-1.517,1.491C0.005,3.032,0,3.091,0,3.151v11.955c0,0.922,0.794,1.734,1.695,1.734h12.609
	c0.902,0,1.695-0.813,1.695-1.734V3.151C16,3.091,15.995,3.037,15.99,2.978z M15.061,15.105c0,0.372-0.375,0.743-0.756,0.743H1.695
	c-0.38,0-0.756-0.371-0.756-0.743V5.943h14.121V15.105z M4.469,7.429H2.347V10.4h2.122V7.429z M7.53,7.429H5.408V10.4H7.53V7.429z
	 M10.591,7.429H8.469V10.4h2.122V7.429z M4.469,11.391H2.347v2.972h2.122V11.391z M7.53,11.391H5.408v2.972H7.53V11.391z
	 M10.591,11.391H8.469v2.972h2.122V11.391z M13.651,7.429h-2.122V10.4h2.122V7.429z M13.651,11.391h-2.122v2.972h2.122V11.391z"/>
</svg>
