<?xml version="1.0" encoding="utf-8"?>
<!-- Generator: Adobe Illustrator 16.0.0, SVG Export Plug-In . SVG Version: 6.00 Build 0)  -->
<!DOCTYPE svg PUBLIC "-//W3C//DTD SVG 1.1//EN" "http://www.w3.org/Graphics/SVG/1.1/DTD/svg11.dtd">
<svg version="1.1" id="Layer_1" xmlns="http://www.w3.org/2000/svg" xmlns:xlink="http://www.w3.org/1999/xlink" x="0px" y="0px"
	 width="15.998px" height="16.837px" viewBox="0 0 15.998 16.837" enable-background="new 0 0 15.998 16.837" xml:space="preserve">
<path fill="#3399ff" d="M8.389,2.971H7.625v6.836h4.585V9.003H8.389V2.971z M8,0C3.58,0,0,3.768,0,8.42c0,4.648,3.58,8.417,8,8.417
	c4.417,0,7.998-3.769,7.998-8.417C15.998,3.768,12.418,0,8,0z M8,15.232c-3.576,0-6.476-3.053-6.476-6.812
	c0-3.764,2.9-6.816,6.476-6.816c3.573,0,6.472,3.052,6.472,6.816C14.473,12.18,11.573,15.232,8,15.232z"/>
</svg>
